<?xml version="1.0" standalone="no"?><!DOCTYPE svg PUBLIC "-//W3C//DTD SVG 1.1//EN" "http://www.w3.org/Graphics/SVG/1.1/DTD/svg11.dtd"><svg t="1661829597006" class="icon" viewBox="0 0 1291 1024" version="1.1" xmlns="http://www.w3.org/2000/svg" p-id="14908" xmlns:xlink="http://www.w3.org/1999/xlink" width="252.1484375" height="200"><path d="M1009.03932 778.050224c0 317.305575-700.273668 317.305575-700.273667 0 0-125.584309 126.153637-270.541591 256.197683-319.772664a241.173745 241.173745 0 0 1-120.049174-211.916602c0-131.831104 99.331954-238.690842 221.879846-238.690842s221.864031 106.859737 221.864031 238.690842a239.876942 239.876942 0 0 1-132.020881 218.195027c127.972324 54.260139 252.402162 192.828293 252.402162 313.494239z m-427.945019-687.305637s-63.068911 46.605838-64.840154 90.776216l25.936061 12.968031 51.872124-77.808185z m-291.780695 869.933467c-155.284263 0-281.184865-64.666193-281.184865-219.96627a281.184865 281.184865 0 0 1 562.36973 0c0 155.300077-125.900602 219.96627-281.184865 219.96627z m0-473.032649a253.034749 253.034749 0 0 0-253.034749 253.034749c0 288.000988 506.069498 288.000988 506.069498 0a253.034749 253.034749 0 0 0-253.034749-253.034749z m0-30.047876a191.357529 191.357529 0 1 1 191.357529-191.357529 191.357529 191.357529 0 0 1-191.357529 191.389158z m0-363.436973A172.158517 172.158517 0 1 0 461.456309 266.319073 172.158517 172.158517 0 0 0 289.313606 94.192185z m713.241699 827.581776c-155.284263 0-281.184865-64.666193-281.184865-219.96627a281.184865 281.184865 0 0 1 562.36973 0c0 155.331707-125.900602 219.9979-281.184865 219.997899z m0-473.016834a253.034749 253.034749 0 0 0-253.034749 253.034749c0 288.000988 506.069498 288.000988 506.069498 0a253.034749 253.034749 0 0 0-253.034749-253.018934z m0-30.047876a191.278456 191.278456 0 1 1 191.278456-191.357529 191.357529 191.357529 0 0 1-191.278456 191.373343z m0-363.436973a172.158517 172.158517 0 1 0 172.142703 172.158517A172.158517 172.158517 0 0 0 1002.555305 55.288093z" fill="#299CF5" p-id="14909"></path></svg>